<svg xmlns="http://www.w3.org/2000/svg" xmlns:xlink="http://www.w3.org/1999/xlink" height="80px" width="385px"><metadata>image/svg+xml</metadata><rect fill="#808080" height="80px" width="385px" x="0" y="0" rx="10" ry="10"></rect><a xlink:href="http://www.greenitsolutions.fr/" target="_blank" style="text-decoration:none"><image x="37" y="5" width="30" height="30" xlink:href="/www/dokuwiki/lib/plugins/switchpanel/images/greenIt.svg"></image></a><rect fill="#fff" x="5" y="5" width="20" height="15" ry="9"></rect><rect fill="#fff" x="360" y="5" width="20" height="15" ry="9"></rect><rect fill="#fff" x="5" y="60" width="20" height="15" ry="9"></rect><rect fill="#fff" x="360" y="60" width="20" height="15" ry="9"></rect><text style="fill:#fff;" font-size="20" fill="black" y="22.5" x="74.5">All types cases </text><rect x="72" y="30" width="36" height="45" fill="#ccc"></rect>
<rect x="72" y="30" width="36" height="16.981132075472" stroke-width="1.2" stroke="#000000" fill="#ffffff" ry="1.5" rx="1.5"></rect>
<text x="90" y="42.5" style="font-weight:bold;" text-anchor="middle" font-family="sans-serif" font-size="9.72" fill="#000000">rj45</text>
<rect x="85.333333333333" y="58.481012658228" width="9" height="13.235294117647" fill="#000000"></rect>
<rect x="82.285714285714" y="58.481012658228" width="15.31914893617" height="11.25" fill="#000000"></rect>
<rect x="76.5" y="52.5" width="26.666666666667" height="15" fill="#000000"></rect>
<rect x="81" y="52.5" width="1.125" height="3" fill="#ffff00"></rect><rect x="83.4" y="52.5" width="1.125" height="3" fill="#ffff00"></rect><rect x="85.8" y="52.5" width="1.125" height="3" fill="#ffff00"></rect><rect x="88.2" y="52.5" width="1.125" height="3" fill="#ffff00"></rect><rect x="90.6" y="52.5" width="1.125" height="3" fill="#ffff00"></rect><rect x="93" y="52.5" width="1.125" height="3" fill="#ffff00"></rect><rect x="95.4" y="52.5" width="1.125" height="3" fill="#ffff00"></rect><rect x="97.8" y="52.5" width="1.125" height="3" fill="#ffff00"></rect><rect x="113" y="30" width="36" height="45" fill="#ccc"></rect>
<rect x="113" y="30" width="36" height="16.981132075472" stroke-width="1.2" stroke="#000000" fill="#ffffff" ry="1.5" rx="1.5"></rect>
<text x="131" y="42.5" style="font-weight:bold;" text-anchor="middle" font-family="sans-serif" font-size="9.72" fill="#000000">of</text>
<rect x="117.5" y="52.5" width="26.666666666667" height="18.75" fill="#000000"></rect>
<circle cx="131" cy="62.142857142857" r="5" fill="#8C7A0F"></circle><text x="131" y="66" text-anchor="middle" font-family="sans-serif" font-size="10.8" fill="#ffffff">of</text><rect x="154" y="30" width="36" height="45" fill="#ccc"></rect>
<rect x="154" y="30" width="36" height="16.981132075472" stroke-width="1.2" stroke="#000000" fill="#ffffff" ry="1.5" rx="1.5"></rect>
<text x="172" y="42.5" style="font-weight:bold;" text-anchor="middle" font-family="sans-serif" font-size="9.72" fill="#000000">2of</text>
<rect x="158.5" y="52.5" width="26.666666666667" height="18.75" fill="#000000"></rect>
<circle cx="165.25" cy="62.142857142857" r="5" fill="#8C7A0F"></circle>
<circle cx="178.8275862069" cy="62.142857142857" r="5" fill="#0F8C12"></circle><text x="172" y="66" text-anchor="middle" font-family="sans-serif" font-size="10.8" fill="#ffffff">2of</text><rect x="236" y="30" width="36" height="45" fill="#ccc"></rect>
<rect x="236" y="30" width="36" height="16.981132075472" stroke-width="1.2" stroke="#000000" fill="#ffffff" ry="1.5" rx="1.5"></rect>
<text x="254" y="42.5" style="font-weight:bold;" text-anchor="middle" font-family="sans-serif" font-size="9.72" fill="#000000">serial</text>
<path d="M242,53.684210526316 C272,53.684210526316 236,66 259.07692307692,66" stroke="#3AC96F" fill="transparent"></path>
<path d="M242,55 C272,55 236,67.5 259.07692307692,67.5" stroke="#26964F" fill="transparent"></path>
<path d="M242,56.470588235294 C272,56.470588235294 236,69.130434782609 259.07692307692,69.130434782609" stroke="#156934" fill="transparent"></path>
<rect x="240.5" y="52.5" width="9" height="9" fill="#276921" ry="1.5" rx="1.5"></rect>
<rect x="259.07692307692" y="62.846715328467" width="9" height="9" fill="#276921" ry="1.5" rx="1.5"></rect><rect x="277" y="30" width="36" height="45" fill="#ccc"></rect>
<rect x="277" y="30" width="36" height="16.981132075472" stroke-width="1.2" stroke="#000000" fill="#ffffff" ry="1.5" rx="1.5"></rect>
<text x="295" y="42.5" style="font-weight:bold;" text-anchor="middle" font-family="sans-serif" font-size="9.72" fill="#000000">close</text>
<line x1="281.5" y1="52.5" x2="308.16666666667" y2="71.25" style="stroke:rgb(255,0,0);stroke-width:1"></line>
<line x1="308.16666666667" y1="52.5" x2="281.5" y2="71.25" style="stroke:rgb(255,0,0);stroke-width:1"></line>
<rect x="281.5" y="52.5" width="26.666666666667" height="18.75" fill="none" stroke="#000000"></rect></svg>