<svg xmlns="http://www.w3.org/2000/svg" xmlns:xlink="http://www.w3.org/1999/xlink" height="265px" width="333px"><metadata>image/svg+xml</metadata><rect fill="#808080" height="265px" width="333px" x="0" y="0" rx="5" ry="5"></rect><text style="fill:#fff;" font-size="20" fill="black" y="22.5" x="7.5">Height separator </text><rect x="5" y="30" width="36" height="45" fill="#ccc"></rect>
<rect x="5" y="30" width="36" height="16.981132075472" stroke-width="1.2" stroke="#000000" fill="#ffffff" ry="1.5" rx="1.5"></rect>
<text x="23" y="42.5" style="font-weight:bold;" text-anchor="middle" font-family="sans-serif" font-size="9.72" fill="#000000">of</text>
<rect x="9.5" y="52.5" width="26.666666666667" height="18.75" fill="#000000"></rect>
<circle cx="23" cy="62.142857142857" r="5" fill="#8C7A0F"></circle><text x="23" y="66" text-anchor="middle" font-family="sans-serif" font-size="10.8" fill="#ffffff">of</text><rect x="46" y="30" width="36" height="45" fill="#ccc"></rect>
<rect x="46" y="30" width="36" height="16.981132075472" stroke-width="1.2" stroke="#000000" fill="#ffffff" ry="1.5" rx="1.5"></rect>
<text x="64" y="42.5" style="font-weight:bold;" text-anchor="middle" font-family="sans-serif" font-size="9.72" fill="#000000"></text>
<rect x="59.333333333333" y="58.481012658228" width="9" height="13.235294117647" fill="#000000"></rect>
<rect x="56.285714285714" y="58.481012658228" width="15.31914893617" height="11.25" fill="#000000"></rect>
<rect x="50.5" y="52.5" width="26.666666666667" height="15" fill="#000000"></rect>
<rect x="55" y="52.5" width="1.125" height="3" fill="#ffff00"></rect><rect x="57.4" y="52.5" width="1.125" height="3" fill="#ffff00"></rect><rect x="59.8" y="52.5" width="1.125" height="3" fill="#ffff00"></rect><rect x="62.2" y="52.5" width="1.125" height="3" fill="#ffff00"></rect><rect x="64.6" y="52.5" width="1.125" height="3" fill="#ffff00"></rect><rect x="67" y="52.5" width="1.125" height="3" fill="#ffff00"></rect><rect x="69.4" y="52.5" width="1.125" height="3" fill="#ffff00"></rect><rect x="71.8" y="52.5" width="1.125" height="3" fill="#ffff00"></rect><rect x="87" y="30" width="36" height="45" fill="#ccc"></rect>
<rect x="87" y="30" width="36" height="16.981132075472" stroke-width="1.2" stroke="#000000" fill="#ffffff" ry="1.5" rx="1.5"></rect>
<text x="105" y="42.5" style="font-weight:bold;" text-anchor="middle" font-family="sans-serif" font-size="9.72" fill="#000000"></text>
<rect x="100.33333333333" y="58.481012658228" width="9" height="13.235294117647" fill="#000000"></rect>
<rect x="97.285714285714" y="58.481012658228" width="15.31914893617" height="11.25" fill="#000000"></rect>
<rect x="91.5" y="52.5" width="26.666666666667" height="15" fill="#000000"></rect>
<rect x="96" y="52.5" width="1.125" height="3" fill="#ffff00"></rect><rect x="98.4" y="52.5" width="1.125" height="3" fill="#ffff00"></rect><rect x="100.8" y="52.5" width="1.125" height="3" fill="#ffff00"></rect><rect x="103.2" y="52.5" width="1.125" height="3" fill="#ffff00"></rect><rect x="105.6" y="52.5" width="1.125" height="3" fill="#ffff00"></rect><rect x="108" y="52.5" width="1.125" height="3" fill="#ffff00"></rect><rect x="110.4" y="52.5" width="1.125" height="3" fill="#ffff00"></rect><rect x="112.8" y="52.5" width="1.125" height="3" fill="#ffff00"></rect><rect x="128" y="30" width="36" height="45" fill="#ccc"></rect>
<rect x="128" y="30" width="36" height="16.981132075472" stroke-width="1.2" stroke="#000000" fill="#ffffff" ry="1.5" rx="1.5"></rect>
<text x="146" y="42.5" style="font-weight:bold;" text-anchor="middle" font-family="sans-serif" font-size="9.72" fill="#000000"></text>
<rect x="141.33333333333" y="58.481012658228" width="9" height="13.235294117647" fill="#000000"></rect>
<rect x="138.28571428571" y="58.481012658228" width="15.31914893617" height="11.25" fill="#000000"></rect>
<rect x="132.5" y="52.5" width="26.666666666667" height="15" fill="#000000"></rect>
<rect x="137" y="52.5" width="1.125" height="3" fill="#ffff00"></rect><rect x="139.4" y="52.5" width="1.125" height="3" fill="#ffff00"></rect><rect x="141.8" y="52.5" width="1.125" height="3" fill="#ffff00"></rect><rect x="144.2" y="52.5" width="1.125" height="3" fill="#ffff00"></rect><rect x="146.6" y="52.5" width="1.125" height="3" fill="#ffff00"></rect><rect x="149" y="52.5" width="1.125" height="3" fill="#ffff00"></rect><rect x="151.4" y="52.5" width="1.125" height="3" fill="#ffff00"></rect><rect x="153.8" y="52.5" width="1.125" height="3" fill="#ffff00"></rect><rect x="169" y="30" width="36" height="45" fill="#ccc"></rect>
<rect x="169" y="30" width="36" height="16.981132075472" stroke-width="1.2" stroke="#000000" fill="#ffffff" ry="1.5" rx="1.5"></rect>
<text x="187" y="42.5" style="font-weight:bold;" text-anchor="middle" font-family="sans-serif" font-size="9.72" fill="#000000"></text>
<rect x="182.33333333333" y="58.481012658228" width="9" height="13.235294117647" fill="#000000"></rect>
<rect x="179.28571428571" y="58.481012658228" width="15.31914893617" height="11.25" fill="#000000"></rect>
<rect x="173.5" y="52.5" width="26.666666666667" height="15" fill="#000000"></rect>
<rect x="178" y="52.5" width="1.125" height="3" fill="#ffff00"></rect><rect x="180.4" y="52.5" width="1.125" height="3" fill="#ffff00"></rect><rect x="182.8" y="52.5" width="1.125" height="3" fill="#ffff00"></rect><rect x="185.2" y="52.5" width="1.125" height="3" fill="#ffff00"></rect><rect x="187.6" y="52.5" width="1.125" height="3" fill="#ffff00"></rect><rect x="190" y="52.5" width="1.125" height="3" fill="#ffff00"></rect><rect x="192.4" y="52.5" width="1.125" height="3" fill="#ffff00"></rect><rect x="194.8" y="52.5" width="1.125" height="3" fill="#ffff00"></rect><rect x="210" y="30" width="36" height="45" fill="#ccc"></rect>
<rect x="210" y="30" width="36" height="16.981132075472" stroke-width="1.2" stroke="#000000" fill="#ffffff" ry="1.5" rx="1.5"></rect>
<text x="228" y="42.5" style="font-weight:bold;" text-anchor="middle" font-family="sans-serif" font-size="9.72" fill="#000000"></text>
<rect x="223.33333333333" y="58.481012658228" width="9" height="13.235294117647" fill="#000000"></rect>
<rect x="220.28571428571" y="58.481012658228" width="15.31914893617" height="11.25" fill="#000000"></rect>
<rect x="214.5" y="52.5" width="26.666666666667" height="15" fill="#000000"></rect>
<rect x="219" y="52.5" width="1.125" height="3" fill="#ffff00"></rect><rect x="221.4" y="52.5" width="1.125" height="3" fill="#ffff00"></rect><rect x="223.8" y="52.5" width="1.125" height="3" fill="#ffff00"></rect><rect x="226.2" y="52.5" width="1.125" height="3" fill="#ffff00"></rect><rect x="228.6" y="52.5" width="1.125" height="3" fill="#ffff00"></rect><rect x="231" y="52.5" width="1.125" height="3" fill="#ffff00"></rect><rect x="233.4" y="52.5" width="1.125" height="3" fill="#ffff00"></rect><rect x="235.8" y="52.5" width="1.125" height="3" fill="#ffff00"></rect><rect x="251" y="30" width="36" height="45" fill="#ccc"></rect>
<rect x="251" y="30" width="36" height="16.981132075472" stroke-width="1.2" stroke="#000000" fill="#ffffff" ry="1.5" rx="1.5"></rect>
<text x="269" y="42.5" style="font-weight:bold;" text-anchor="middle" font-family="sans-serif" font-size="9.72" fill="#000000"></text>
<rect x="264.33333333333" y="58.481012658228" width="9" height="13.235294117647" fill="#000000"></rect>
<rect x="261.28571428571" y="58.481012658228" width="15.31914893617" height="11.25" fill="#000000"></rect>
<rect x="255.5" y="52.5" width="26.666666666667" height="15" fill="#000000"></rect>
<rect x="260" y="52.5" width="1.125" height="3" fill="#ffff00"></rect><rect x="262.4" y="52.5" width="1.125" height="3" fill="#ffff00"></rect><rect x="264.8" y="52.5" width="1.125" height="3" fill="#ffff00"></rect><rect x="267.2" y="52.5" width="1.125" height="3" fill="#ffff00"></rect><rect x="269.6" y="52.5" width="1.125" height="3" fill="#ffff00"></rect><rect x="272" y="52.5" width="1.125" height="3" fill="#ffff00"></rect><rect x="274.4" y="52.5" width="1.125" height="3" fill="#ffff00"></rect><rect x="276.8" y="52.5" width="1.125" height="3" fill="#ffff00"></rect><rect x="292" y="30" width="36" height="45" fill="#ccc"></rect>
<rect x="292" y="30" width="36" height="16.981132075472" stroke-width="1.2" stroke="#000000" fill="#ffffff" ry="1.5" rx="1.5"></rect>
<text x="310" y="42.5" style="font-weight:bold;" text-anchor="middle" font-family="sans-serif" font-size="9.72" fill="#000000"></text>
<rect x="305.33333333333" y="58.481012658228" width="9" height="13.235294117647" fill="#000000"></rect>
<rect x="302.28571428571" y="58.481012658228" width="15.31914893617" height="11.25" fill="#000000"></rect>
<rect x="296.5" y="52.5" width="26.666666666667" height="15" fill="#000000"></rect>
<rect x="301" y="52.5" width="1.125" height="3" fill="#ffff00"></rect><rect x="303.4" y="52.5" width="1.125" height="3" fill="#ffff00"></rect><rect x="305.8" y="52.5" width="1.125" height="3" fill="#ffff00"></rect><rect x="308.2" y="52.5" width="1.125" height="3" fill="#ffff00"></rect><rect x="310.6" y="52.5" width="1.125" height="3" fill="#ffff00"></rect><rect x="313" y="52.5" width="1.125" height="3" fill="#ffff00"></rect><rect x="315.4" y="52.5" width="1.125" height="3" fill="#ffff00"></rect><rect x="317.8" y="52.5" width="1.125" height="3" fill="#ffff00"></rect><rect x="5" y="80" width="36" height="45" fill="#ccc"></rect>
<rect x="5" y="80" width="36" height="16.981132075472" stroke-width="1.2" stroke="#000000" fill="#ffffff" ry="1.5" rx="1.5"></rect>
<text x="23" y="92.5" style="font-weight:bold;" text-anchor="middle" font-family="sans-serif" font-size="9.72" fill="#000000"></text>
<rect x="18.333333333333" y="108.48101265823" width="9" height="13.235294117647" fill="#000000"></rect>
<rect x="15.285714285714" y="108.48101265823" width="15.31914893617" height="11.25" fill="#000000"></rect>
<rect x="9.5" y="102.5" width="26.666666666667" height="15" fill="#000000"></rect>
<rect x="14" y="102.5" width="1.125" height="3" fill="#ffff00"></rect><rect x="16.4" y="102.5" width="1.125" height="3" fill="#ffff00"></rect><rect x="18.8" y="102.5" width="1.125" height="3" fill="#ffff00"></rect><rect x="21.2" y="102.5" width="1.125" height="3" fill="#ffff00"></rect><rect x="23.6" y="102.5" width="1.125" height="3" fill="#ffff00"></rect><rect x="26" y="102.5" width="1.125" height="3" fill="#ffff00"></rect><rect x="28.4" y="102.5" width="1.125" height="3" fill="#ffff00"></rect><rect x="30.8" y="102.5" width="1.125" height="3" fill="#ffff00"></rect><rect x="46" y="80" width="36" height="45" fill="#ccc"></rect>
<rect x="46" y="80" width="36" height="16.981132075472" stroke-width="1.2" stroke="#000000" fill="#ffffff" ry="1.5" rx="1.5"></rect>
<text x="64" y="92.5" style="font-weight:bold;" text-anchor="middle" font-family="sans-serif" font-size="9.72" fill="#000000"></text>
<rect x="59.333333333333" y="108.48101265823" width="9" height="13.235294117647" fill="#000000"></rect>
<rect x="56.285714285714" y="108.48101265823" width="15.31914893617" height="11.25" fill="#000000"></rect>
<rect x="50.5" y="102.5" width="26.666666666667" height="15" fill="#000000"></rect>
<rect x="55" y="102.5" width="1.125" height="3" fill="#ffff00"></rect><rect x="57.4" y="102.5" width="1.125" height="3" fill="#ffff00"></rect><rect x="59.8" y="102.5" width="1.125" height="3" fill="#ffff00"></rect><rect x="62.2" y="102.5" width="1.125" height="3" fill="#ffff00"></rect><rect x="64.6" y="102.5" width="1.125" height="3" fill="#ffff00"></rect><rect x="67" y="102.5" width="1.125" height="3" fill="#ffff00"></rect><rect x="69.4" y="102.5" width="1.125" height="3" fill="#ffff00"></rect><rect x="71.8" y="102.5" width="1.125" height="3" fill="#ffff00"></rect><rect x="87" y="80" width="36" height="45" fill="#ccc"></rect>
<rect x="87" y="80" width="36" height="16.981132075472" stroke-width="1.2" stroke="#000000" fill="#ffffff" ry="1.5" rx="1.5"></rect>
<text x="105" y="92.5" style="font-weight:bold;" text-anchor="middle" font-family="sans-serif" font-size="9.72" fill="#000000"></text>
<rect x="100.33333333333" y="108.48101265823" width="9" height="13.235294117647" fill="#000000"></rect>
<rect x="97.285714285714" y="108.48101265823" width="15.31914893617" height="11.25" fill="#000000"></rect>
<rect x="91.5" y="102.5" width="26.666666666667" height="15" fill="#000000"></rect>
<rect x="96" y="102.5" width="1.125" height="3" fill="#ffff00"></rect><rect x="98.4" y="102.5" width="1.125" height="3" fill="#ffff00"></rect><rect x="100.8" y="102.5" width="1.125" height="3" fill="#ffff00"></rect><rect x="103.2" y="102.5" width="1.125" height="3" fill="#ffff00"></rect><rect x="105.6" y="102.5" width="1.125" height="3" fill="#ffff00"></rect><rect x="108" y="102.5" width="1.125" height="3" fill="#ffff00"></rect><rect x="110.4" y="102.5" width="1.125" height="3" fill="#ffff00"></rect><rect x="112.8" y="102.5" width="1.125" height="3" fill="#ffff00"></rect><rect x="128" y="80" width="36" height="45" fill="#ccc"></rect>
<rect x="128" y="80" width="36" height="16.981132075472" stroke-width="1.2" stroke="#000000" fill="#ffffff" ry="1.5" rx="1.5"></rect>
<text x="146" y="92.5" style="font-weight:bold;" text-anchor="middle" font-family="sans-serif" font-size="9.72" fill="#000000"></text>
<rect x="141.33333333333" y="108.48101265823" width="9" height="13.235294117647" fill="#000000"></rect>
<rect x="138.28571428571" y="108.48101265823" width="15.31914893617" height="11.25" fill="#000000"></rect>
<rect x="132.5" y="102.5" width="26.666666666667" height="15" fill="#000000"></rect>
<rect x="137" y="102.5" width="1.125" height="3" fill="#ffff00"></rect><rect x="139.4" y="102.5" width="1.125" height="3" fill="#ffff00"></rect><rect x="141.8" y="102.5" width="1.125" height="3" fill="#ffff00"></rect><rect x="144.2" y="102.5" width="1.125" height="3" fill="#ffff00"></rect><rect x="146.6" y="102.5" width="1.125" height="3" fill="#ffff00"></rect><rect x="149" y="102.5" width="1.125" height="3" fill="#ffff00"></rect><rect x="151.4" y="102.5" width="1.125" height="3" fill="#ffff00"></rect><rect x="153.8" y="102.5" width="1.125" height="3" fill="#ffff00"></rect><rect x="169" y="80" width="36" height="45" fill="#ccc"></rect>
<rect x="169" y="80" width="36" height="16.981132075472" stroke-width="1.2" stroke="#000000" fill="#ffffff" ry="1.5" rx="1.5"></rect>
<text x="187" y="92.5" style="font-weight:bold;" text-anchor="middle" font-family="sans-serif" font-size="9.72" fill="#000000"></text>
<rect x="182.33333333333" y="108.48101265823" width="9" height="13.235294117647" fill="#000000"></rect>
<rect x="179.28571428571" y="108.48101265823" width="15.31914893617" height="11.25" fill="#000000"></rect>
<rect x="173.5" y="102.5" width="26.666666666667" height="15" fill="#000000"></rect>
<rect x="178" y="102.5" width="1.125" height="3" fill="#ffff00"></rect><rect x="180.4" y="102.5" width="1.125" height="3" fill="#ffff00"></rect><rect x="182.8" y="102.5" width="1.125" height="3" fill="#ffff00"></rect><rect x="185.2" y="102.5" width="1.125" height="3" fill="#ffff00"></rect><rect x="187.6" y="102.5" width="1.125" height="3" fill="#ffff00"></rect><rect x="190" y="102.5" width="1.125" height="3" fill="#ffff00"></rect><rect x="192.4" y="102.5" width="1.125" height="3" fill="#ffff00"></rect><rect x="194.8" y="102.5" width="1.125" height="3" fill="#ffff00"></rect><rect x="210" y="80" width="36" height="45" fill="#ccc"></rect>
<rect x="210" y="80" width="36" height="16.981132075472" stroke-width="1.2" stroke="#000000" fill="#ffffff" ry="1.5" rx="1.5"></rect>
<text x="228" y="92.5" style="font-weight:bold;" text-anchor="middle" font-family="sans-serif" font-size="9.72" fill="#000000"></text>
<rect x="223.33333333333" y="108.48101265823" width="9" height="13.235294117647" fill="#000000"></rect>
<rect x="220.28571428571" y="108.48101265823" width="15.31914893617" height="11.25" fill="#000000"></rect>
<rect x="214.5" y="102.5" width="26.666666666667" height="15" fill="#000000"></rect>
<rect x="219" y="102.5" width="1.125" height="3" fill="#ffff00"></rect><rect x="221.4" y="102.5" width="1.125" height="3" fill="#ffff00"></rect><rect x="223.8" y="102.5" width="1.125" height="3" fill="#ffff00"></rect><rect x="226.2" y="102.5" width="1.125" height="3" fill="#ffff00"></rect><rect x="228.6" y="102.5" width="1.125" height="3" fill="#ffff00"></rect><rect x="231" y="102.5" width="1.125" height="3" fill="#ffff00"></rect><rect x="233.4" y="102.5" width="1.125" height="3" fill="#ffff00"></rect><rect x="235.8" y="102.5" width="1.125" height="3" fill="#ffff00"></rect><rect x="251" y="80" width="36" height="45" fill="#ccc"></rect>
<rect x="251" y="80" width="36" height="16.981132075472" stroke-width="1.2" stroke="#000000" fill="#ffffff" ry="1.5" rx="1.5"></rect>
<text x="269" y="92.5" style="font-weight:bold;" text-anchor="middle" font-family="sans-serif" font-size="9.72" fill="#000000"></text>
<rect x="264.33333333333" y="108.48101265823" width="9" height="13.235294117647" fill="#000000"></rect>
<rect x="261.28571428571" y="108.48101265823" width="15.31914893617" height="11.25" fill="#000000"></rect>
<rect x="255.5" y="102.5" width="26.666666666667" height="15" fill="#000000"></rect>
<rect x="260" y="102.5" width="1.125" height="3" fill="#ffff00"></rect><rect x="262.4" y="102.5" width="1.125" height="3" fill="#ffff00"></rect><rect x="264.8" y="102.5" width="1.125" height="3" fill="#ffff00"></rect><rect x="267.2" y="102.5" width="1.125" height="3" fill="#ffff00"></rect><rect x="269.6" y="102.5" width="1.125" height="3" fill="#ffff00"></rect><rect x="272" y="102.5" width="1.125" height="3" fill="#ffff00"></rect><rect x="274.4" y="102.5" width="1.125" height="3" fill="#ffff00"></rect><rect x="276.8" y="102.5" width="1.125" height="3" fill="#ffff00"></rect><rect x="292" y="80" width="36" height="45" fill="#ccc"></rect>
<rect x="292" y="80" width="36" height="16.981132075472" stroke-width="1.2" stroke="#000000" fill="#ffffff" ry="1.5" rx="1.5"></rect>
<text x="310" y="92.5" style="font-weight:bold;" text-anchor="middle" font-family="sans-serif" font-size="9.72" fill="#000000"></text>
<rect x="305.33333333333" y="108.48101265823" width="9" height="13.235294117647" fill="#000000"></rect>
<rect x="302.28571428571" y="108.48101265823" width="15.31914893617" height="11.25" fill="#000000"></rect>
<rect x="296.5" y="102.5" width="26.666666666667" height="15" fill="#000000"></rect>
<rect x="301" y="102.5" width="1.125" height="3" fill="#ffff00"></rect><rect x="303.4" y="102.5" width="1.125" height="3" fill="#ffff00"></rect><rect x="305.8" y="102.5" width="1.125" height="3" fill="#ffff00"></rect><rect x="308.2" y="102.5" width="1.125" height="3" fill="#ffff00"></rect><rect x="310.6" y="102.5" width="1.125" height="3" fill="#ffff00"></rect><rect x="313" y="102.5" width="1.125" height="3" fill="#ffff00"></rect><rect x="315.4" y="102.5" width="1.125" height="3" fill="#ffff00"></rect><rect x="317.8" y="102.5" width="1.125" height="3" fill="#ffff00"></rect><rect x="46" y="140" width="36" height="45" fill="#ccc"></rect>
<rect x="46" y="140" width="36" height="16.981132075472" stroke-width="1.2" stroke="#000000" fill="#ffffff" ry="1.5" rx="1.5"></rect>
<text x="64" y="152.5" style="font-weight:bold;" text-anchor="middle" font-family="sans-serif" font-size="9.72" fill="#000000"></text>
<rect x="59.333333333333" y="168.48101265823" width="9" height="13.235294117647" fill="#000000"></rect>
<rect x="56.285714285714" y="168.48101265823" width="15.31914893617" height="11.25" fill="#000000"></rect>
<rect x="50.5" y="162.5" width="26.666666666667" height="15" fill="#000000"></rect>
<rect x="55" y="162.5" width="1.125" height="3" fill="#ffff00"></rect><rect x="57.4" y="162.5" width="1.125" height="3" fill="#ffff00"></rect><rect x="59.8" y="162.5" width="1.125" height="3" fill="#ffff00"></rect><rect x="62.2" y="162.5" width="1.125" height="3" fill="#ffff00"></rect><rect x="64.6" y="162.5" width="1.125" height="3" fill="#ffff00"></rect><rect x="67" y="162.5" width="1.125" height="3" fill="#ffff00"></rect><rect x="69.4" y="162.5" width="1.125" height="3" fill="#ffff00"></rect><rect x="71.8" y="162.5" width="1.125" height="3" fill="#ffff00"></rect><rect x="87" y="140" width="36" height="45" fill="#ccc"></rect>
<rect x="87" y="140" width="36" height="16.981132075472" stroke-width="1.2" stroke="#000000" fill="#ffffff" ry="1.5" rx="1.5"></rect>
<text x="105" y="152.5" style="font-weight:bold;" text-anchor="middle" font-family="sans-serif" font-size="9.72" fill="#000000"></text>
<rect x="100.33333333333" y="168.48101265823" width="9" height="13.235294117647" fill="#000000"></rect>
<rect x="97.285714285714" y="168.48101265823" width="15.31914893617" height="11.25" fill="#000000"></rect>
<rect x="91.5" y="162.5" width="26.666666666667" height="15" fill="#000000"></rect>
<rect x="96" y="162.5" width="1.125" height="3" fill="#ffff00"></rect><rect x="98.4" y="162.5" width="1.125" height="3" fill="#ffff00"></rect><rect x="100.8" y="162.5" width="1.125" height="3" fill="#ffff00"></rect><rect x="103.2" y="162.5" width="1.125" height="3" fill="#ffff00"></rect><rect x="105.6" y="162.5" width="1.125" height="3" fill="#ffff00"></rect><rect x="108" y="162.5" width="1.125" height="3" fill="#ffff00"></rect><rect x="110.4" y="162.5" width="1.125" height="3" fill="#ffff00"></rect><rect x="112.8" y="162.5" width="1.125" height="3" fill="#ffff00"></rect><rect x="128" y="140" width="36" height="45" fill="#ccc"></rect>
<rect x="128" y="140" width="36" height="16.981132075472" stroke-width="1.2" stroke="#000000" fill="#ffffff" ry="1.5" rx="1.5"></rect>
<text x="146" y="152.5" style="font-weight:bold;" text-anchor="middle" font-family="sans-serif" font-size="9.72" fill="#000000"></text>
<rect x="141.33333333333" y="168.48101265823" width="9" height="13.235294117647" fill="#000000"></rect>
<rect x="138.28571428571" y="168.48101265823" width="15.31914893617" height="11.25" fill="#000000"></rect>
<rect x="132.5" y="162.5" width="26.666666666667" height="15" fill="#000000"></rect>
<rect x="137" y="162.5" width="1.125" height="3" fill="#ffff00"></rect><rect x="139.4" y="162.5" width="1.125" height="3" fill="#ffff00"></rect><rect x="141.8" y="162.5" width="1.125" height="3" fill="#ffff00"></rect><rect x="144.2" y="162.5" width="1.125" height="3" fill="#ffff00"></rect><rect x="146.6" y="162.5" width="1.125" height="3" fill="#ffff00"></rect><rect x="149" y="162.5" width="1.125" height="3" fill="#ffff00"></rect><rect x="151.4" y="162.5" width="1.125" height="3" fill="#ffff00"></rect><rect x="153.8" y="162.5" width="1.125" height="3" fill="#ffff00"></rect><rect x="169" y="140" width="36" height="45" fill="#ccc"></rect>
<rect x="169" y="140" width="36" height="16.981132075472" stroke-width="1.2" stroke="#000000" fill="#ffffff" ry="1.5" rx="1.5"></rect>
<text x="187" y="152.5" style="font-weight:bold;" text-anchor="middle" font-family="sans-serif" font-size="9.72" fill="#000000"></text>
<rect x="182.33333333333" y="168.48101265823" width="9" height="13.235294117647" fill="#000000"></rect>
<rect x="179.28571428571" y="168.48101265823" width="15.31914893617" height="11.25" fill="#000000"></rect>
<rect x="173.5" y="162.5" width="26.666666666667" height="15" fill="#000000"></rect>
<rect x="178" y="162.5" width="1.125" height="3" fill="#ffff00"></rect><rect x="180.4" y="162.5" width="1.125" height="3" fill="#ffff00"></rect><rect x="182.8" y="162.5" width="1.125" height="3" fill="#ffff00"></rect><rect x="185.2" y="162.5" width="1.125" height="3" fill="#ffff00"></rect><rect x="187.6" y="162.5" width="1.125" height="3" fill="#ffff00"></rect><rect x="190" y="162.5" width="1.125" height="3" fill="#ffff00"></rect><rect x="192.4" y="162.5" width="1.125" height="3" fill="#ffff00"></rect><rect x="194.8" y="162.5" width="1.125" height="3" fill="#ffff00"></rect><rect x="251" y="140" width="36" height="45" fill="#ccc"></rect>
<rect x="251" y="140" width="36" height="16.981132075472" stroke-width="1.2" stroke="#000000" fill="#ffffff" ry="1.5" rx="1.5"></rect>
<text x="269" y="152.5" style="font-weight:bold;" text-anchor="middle" font-family="sans-serif" font-size="9.72" fill="#000000"></text>
<rect x="264.33333333333" y="168.48101265823" width="9" height="13.235294117647" fill="#000000"></rect>
<rect x="261.28571428571" y="168.48101265823" width="15.31914893617" height="11.25" fill="#000000"></rect>
<rect x="255.5" y="162.5" width="26.666666666667" height="15" fill="#000000"></rect>
<rect x="260" y="162.5" width="1.125" height="3" fill="#ffff00"></rect><rect x="262.4" y="162.5" width="1.125" height="3" fill="#ffff00"></rect><rect x="264.8" y="162.5" width="1.125" height="3" fill="#ffff00"></rect><rect x="267.2" y="162.5" width="1.125" height="3" fill="#ffff00"></rect><rect x="269.6" y="162.5" width="1.125" height="3" fill="#ffff00"></rect><rect x="272" y="162.5" width="1.125" height="3" fill="#ffff00"></rect><rect x="274.4" y="162.5" width="1.125" height="3" fill="#ffff00"></rect><rect x="276.8" y="162.5" width="1.125" height="3" fill="#ffff00"></rect><rect x="292" y="140" width="36" height="45" fill="#ccc"></rect>
<rect x="292" y="140" width="36" height="16.981132075472" stroke-width="1.2" stroke="#000000" fill="#ffffff" ry="1.5" rx="1.5"></rect>
<text x="310" y="152.5" style="font-weight:bold;" text-anchor="middle" font-family="sans-serif" font-size="9.72" fill="#000000"></text>
<rect x="305.33333333333" y="168.48101265823" width="9" height="13.235294117647" fill="#000000"></rect>
<rect x="302.28571428571" y="168.48101265823" width="15.31914893617" height="11.25" fill="#000000"></rect>
<rect x="296.5" y="162.5" width="26.666666666667" height="15" fill="#000000"></rect>
<rect x="301" y="162.5" width="1.125" height="3" fill="#ffff00"></rect><rect x="303.4" y="162.5" width="1.125" height="3" fill="#ffff00"></rect><rect x="305.8" y="162.5" width="1.125" height="3" fill="#ffff00"></rect><rect x="308.2" y="162.5" width="1.125" height="3" fill="#ffff00"></rect><rect x="310.6" y="162.5" width="1.125" height="3" fill="#ffff00"></rect><rect x="313" y="162.5" width="1.125" height="3" fill="#ffff00"></rect><rect x="315.4" y="162.5" width="1.125" height="3" fill="#ffff00"></rect><rect x="317.8" y="162.5" width="1.125" height="3" fill="#ffff00"></rect><rect x="5" y="215" width="36" height="45" fill="#ccc"></rect>
<rect x="5" y="215" width="36" height="16.981132075472" stroke-width="1.2" stroke="#000000" fill="#ffffff" ry="1.5" rx="1.5"></rect>
<text x="23" y="227.5" style="font-weight:bold;" text-anchor="middle" font-family="sans-serif" font-size="9.72" fill="#000000"></text>
<rect x="18.333333333333" y="243.48101265823" width="9" height="13.235294117647" fill="#000000"></rect>
<rect x="15.285714285714" y="243.48101265823" width="15.31914893617" height="11.25" fill="#000000"></rect>
<rect x="9.5" y="237.5" width="26.666666666667" height="15" fill="#000000"></rect>
<rect x="14" y="237.5" width="1.125" height="3" fill="#ffff00"></rect><rect x="16.4" y="237.5" width="1.125" height="3" fill="#ffff00"></rect><rect x="18.8" y="237.5" width="1.125" height="3" fill="#ffff00"></rect><rect x="21.2" y="237.5" width="1.125" height="3" fill="#ffff00"></rect><rect x="23.6" y="237.5" width="1.125" height="3" fill="#ffff00"></rect><rect x="26" y="237.5" width="1.125" height="3" fill="#ffff00"></rect><rect x="28.4" y="237.5" width="1.125" height="3" fill="#ffff00"></rect><rect x="30.8" y="237.5" width="1.125" height="3" fill="#ffff00"></rect><rect x="46" y="215" width="36" height="45" fill="#ccc"></rect>
<rect x="46" y="215" width="36" height="16.981132075472" stroke-width="1.2" stroke="#000000" fill="#ffffff" ry="1.5" rx="1.5"></rect>
<text x="64" y="227.5" style="font-weight:bold;" text-anchor="middle" font-family="sans-serif" font-size="9.72" fill="#000000"></text>
<rect x="59.333333333333" y="243.48101265823" width="9" height="13.235294117647" fill="#000000"></rect>
<rect x="56.285714285714" y="243.48101265823" width="15.31914893617" height="11.25" fill="#000000"></rect>
<rect x="50.5" y="237.5" width="26.666666666667" height="15" fill="#000000"></rect>
<rect x="55" y="237.5" width="1.125" height="3" fill="#ffff00"></rect><rect x="57.4" y="237.5" width="1.125" height="3" fill="#ffff00"></rect><rect x="59.8" y="237.5" width="1.125" height="3" fill="#ffff00"></rect><rect x="62.2" y="237.5" width="1.125" height="3" fill="#ffff00"></rect><rect x="64.6" y="237.5" width="1.125" height="3" fill="#ffff00"></rect><rect x="67" y="237.5" width="1.125" height="3" fill="#ffff00"></rect><rect x="69.4" y="237.5" width="1.125" height="3" fill="#ffff00"></rect><rect x="71.8" y="237.5" width="1.125" height="3" fill="#ffff00"></rect><rect x="87" y="215" width="36" height="45" fill="#ccc"></rect>
<rect x="87" y="215" width="36" height="16.981132075472" stroke-width="1.2" stroke="#000000" fill="#ffffff" ry="1.5" rx="1.5"></rect>
<text x="105" y="227.5" style="font-weight:bold;" text-anchor="middle" font-family="sans-serif" font-size="9.72" fill="#000000"></text>
<rect x="100.33333333333" y="243.48101265823" width="9" height="13.235294117647" fill="#000000"></rect>
<rect x="97.285714285714" y="243.48101265823" width="15.31914893617" height="11.25" fill="#000000"></rect>
<rect x="91.5" y="237.5" width="26.666666666667" height="15" fill="#000000"></rect>
<rect x="96" y="237.5" width="1.125" height="3" fill="#ffff00"></rect><rect x="98.4" y="237.5" width="1.125" height="3" fill="#ffff00"></rect><rect x="100.8" y="237.5" width="1.125" height="3" fill="#ffff00"></rect><rect x="103.2" y="237.5" width="1.125" height="3" fill="#ffff00"></rect><rect x="105.6" y="237.5" width="1.125" height="3" fill="#ffff00"></rect><rect x="108" y="237.5" width="1.125" height="3" fill="#ffff00"></rect><rect x="110.4" y="237.5" width="1.125" height="3" fill="#ffff00"></rect><rect x="112.8" y="237.5" width="1.125" height="3" fill="#ffff00"></rect><rect x="128" y="215" width="36" height="45" fill="#ccc"></rect>
<rect x="128" y="215" width="36" height="16.981132075472" stroke-width="1.2" stroke="#000000" fill="#ffffff" ry="1.5" rx="1.5"></rect>
<text x="146" y="227.5" style="font-weight:bold;" text-anchor="middle" font-family="sans-serif" font-size="9.72" fill="#000000"></text>
<rect x="141.33333333333" y="243.48101265823" width="9" height="13.235294117647" fill="#000000"></rect>
<rect x="138.28571428571" y="243.48101265823" width="15.31914893617" height="11.25" fill="#000000"></rect>
<rect x="132.5" y="237.5" width="26.666666666667" height="15" fill="#000000"></rect>
<rect x="137" y="237.5" width="1.125" height="3" fill="#ffff00"></rect><rect x="139.4" y="237.5" width="1.125" height="3" fill="#ffff00"></rect><rect x="141.8" y="237.5" width="1.125" height="3" fill="#ffff00"></rect><rect x="144.2" y="237.5" width="1.125" height="3" fill="#ffff00"></rect><rect x="146.6" y="237.5" width="1.125" height="3" fill="#ffff00"></rect><rect x="149" y="237.5" width="1.125" height="3" fill="#ffff00"></rect><rect x="151.4" y="237.5" width="1.125" height="3" fill="#ffff00"></rect><rect x="153.8" y="237.5" width="1.125" height="3" fill="#ffff00"></rect><rect x="169" y="215" width="36" height="45" fill="#ccc"></rect>
<rect x="169" y="215" width="36" height="16.981132075472" stroke-width="1.2" stroke="#000000" fill="#ffffff" ry="1.5" rx="1.5"></rect>
<text x="187" y="227.5" style="font-weight:bold;" text-anchor="middle" font-family="sans-serif" font-size="9.72" fill="#000000"></text>
<rect x="182.33333333333" y="243.48101265823" width="9" height="13.235294117647" fill="#000000"></rect>
<rect x="179.28571428571" y="243.48101265823" width="15.31914893617" height="11.25" fill="#000000"></rect>
<rect x="173.5" y="237.5" width="26.666666666667" height="15" fill="#000000"></rect>
<rect x="178" y="237.5" width="1.125" height="3" fill="#ffff00"></rect><rect x="180.4" y="237.5" width="1.125" height="3" fill="#ffff00"></rect><rect x="182.8" y="237.5" width="1.125" height="3" fill="#ffff00"></rect><rect x="185.2" y="237.5" width="1.125" height="3" fill="#ffff00"></rect><rect x="187.6" y="237.5" width="1.125" height="3" fill="#ffff00"></rect><rect x="190" y="237.5" width="1.125" height="3" fill="#ffff00"></rect><rect x="192.4" y="237.5" width="1.125" height="3" fill="#ffff00"></rect><rect x="194.8" y="237.5" width="1.125" height="3" fill="#ffff00"></rect><rect x="210" y="215" width="36" height="45" fill="#ccc"></rect>
<rect x="210" y="215" width="36" height="16.981132075472" stroke-width="1.2" stroke="#000000" fill="#ffffff" ry="1.5" rx="1.5"></rect>
<text x="228" y="227.5" style="font-weight:bold;" text-anchor="middle" font-family="sans-serif" font-size="9.72" fill="#000000"></text>
<rect x="223.33333333333" y="243.48101265823" width="9" height="13.235294117647" fill="#000000"></rect>
<rect x="220.28571428571" y="243.48101265823" width="15.31914893617" height="11.25" fill="#000000"></rect>
<rect x="214.5" y="237.5" width="26.666666666667" height="15" fill="#000000"></rect>
<rect x="219" y="237.5" width="1.125" height="3" fill="#ffff00"></rect><rect x="221.4" y="237.5" width="1.125" height="3" fill="#ffff00"></rect><rect x="223.8" y="237.5" width="1.125" height="3" fill="#ffff00"></rect><rect x="226.2" y="237.5" width="1.125" height="3" fill="#ffff00"></rect><rect x="228.6" y="237.5" width="1.125" height="3" fill="#ffff00"></rect><rect x="231" y="237.5" width="1.125" height="3" fill="#ffff00"></rect><rect x="233.4" y="237.5" width="1.125" height="3" fill="#ffff00"></rect><rect x="235.8" y="237.5" width="1.125" height="3" fill="#ffff00"></rect><rect x="251" y="215" width="36" height="45" fill="#ccc"></rect>
<rect x="251" y="215" width="36" height="16.981132075472" stroke-width="1.2" stroke="#000000" fill="#ffffff" ry="1.5" rx="1.5"></rect>
<text x="269" y="227.5" style="font-weight:bold;" text-anchor="middle" font-family="sans-serif" font-size="9.72" fill="#000000"></text>
<rect x="264.33333333333" y="243.48101265823" width="9" height="13.235294117647" fill="#000000"></rect>
<rect x="261.28571428571" y="243.48101265823" width="15.31914893617" height="11.25" fill="#000000"></rect>
<rect x="255.5" y="237.5" width="26.666666666667" height="15" fill="#000000"></rect>
<rect x="260" y="237.5" width="1.125" height="3" fill="#ffff00"></rect><rect x="262.4" y="237.5" width="1.125" height="3" fill="#ffff00"></rect><rect x="264.8" y="237.5" width="1.125" height="3" fill="#ffff00"></rect><rect x="267.2" y="237.5" width="1.125" height="3" fill="#ffff00"></rect><rect x="269.6" y="237.5" width="1.125" height="3" fill="#ffff00"></rect><rect x="272" y="237.5" width="1.125" height="3" fill="#ffff00"></rect><rect x="274.4" y="237.5" width="1.125" height="3" fill="#ffff00"></rect><rect x="276.8" y="237.5" width="1.125" height="3" fill="#ffff00"></rect><rect x="292" y="215" width="36" height="45" fill="#ccc"></rect>
<rect x="292" y="215" width="36" height="16.981132075472" stroke-width="1.2" stroke="#000000" fill="#ffffff" ry="1.5" rx="1.5"></rect>
<text x="310" y="227.5" style="font-weight:bold;" text-anchor="middle" font-family="sans-serif" font-size="9.72" fill="#000000"></text>
<rect x="305.33333333333" y="243.48101265823" width="9" height="13.235294117647" fill="#000000"></rect>
<rect x="302.28571428571" y="243.48101265823" width="15.31914893617" height="11.25" fill="#000000"></rect>
<rect x="296.5" y="237.5" width="26.666666666667" height="15" fill="#000000"></rect>
<rect x="301" y="237.5" width="1.125" height="3" fill="#ffff00"></rect><rect x="303.4" y="237.5" width="1.125" height="3" fill="#ffff00"></rect><rect x="305.8" y="237.5" width="1.125" height="3" fill="#ffff00"></rect><rect x="308.2" y="237.5" width="1.125" height="3" fill="#ffff00"></rect><rect x="310.6" y="237.5" width="1.125" height="3" fill="#ffff00"></rect><rect x="313" y="237.5" width="1.125" height="3" fill="#ffff00"></rect><rect x="315.4" y="237.5" width="1.125" height="3" fill="#ffff00"></rect><rect x="317.8" y="237.5" width="1.125" height="3" fill="#ffff00"></rect></svg>