<svg xmlns="http://www.w3.org/2000/svg" xmlns:xlink="http://www.w3.org/1999/xlink" height="155px" width="467px"><metadata>image/svg+xml</metadata><rect fill="#808080" height="155px" width="467px" x="0" y="0" rx="10" ry="10"></rect><a xlink:href="http://www.greenitsolutions.fr/" target="_blank" style="text-decoration:none"><image x="37" y="5" width="30" height="30" xlink:href="/www/dokuwiki/lib/plugins/switchpanel/images/greenIt.svg"></image></a><rect fill="#fff" x="5" y="5" width="20" height="15" ry="9"></rect><rect fill="#fff" x="442" y="5" width="20" height="15" ry="9"></rect><rect fill="#fff" x="5" y="70" width="20" height="15" ry="9"></rect><rect fill="#fff" x="442" y="70" width="20" height="15" ry="9"></rect><rect fill="#fff" x="5" y="135" width="20" height="15" ry="9"></rect><rect fill="#fff" x="442" y="135" width="20" height="15" ry="9"></rect><text style="fill:#fff;" font-size="20" fill="black" y="22.5" x="74.5">Text bar information </text><rect x="72" y="30" width="36" height="45" fill="#ccc"></rect>
<rect x="72" y="30" width="36" height="16.981132075472" stroke-width="1.2" stroke="#000000" fill="#ffffff" ry="1.5" rx="1.5"></rect>
<text x="90" y="42.5" style="font-weight:bold;" text-anchor="middle" font-family="sans-serif" font-size="9.72" fill="#000000"></text>
<rect x="85.333333333333" y="58.481012658228" width="9" height="13.235294117647" fill="#000000"></rect>
<rect x="82.285714285714" y="58.481012658228" width="15.31914893617" height="11.25" fill="#000000"></rect>
<rect x="76.5" y="52.5" width="26.666666666667" height="15" fill="#000000"></rect>
<rect x="81" y="52.5" width="1.125" height="3" fill="#ffff00"></rect><rect x="83.4" y="52.5" width="1.125" height="3" fill="#ffff00"></rect><rect x="85.8" y="52.5" width="1.125" height="3" fill="#ffff00"></rect><rect x="88.2" y="52.5" width="1.125" height="3" fill="#ffff00"></rect><rect x="90.6" y="52.5" width="1.125" height="3" fill="#ffff00"></rect><rect x="93" y="52.5" width="1.125" height="3" fill="#ffff00"></rect><rect x="95.4" y="52.5" width="1.125" height="3" fill="#ffff00"></rect><rect x="97.8" y="52.5" width="1.125" height="3" fill="#ffff00"></rect><rect x="113" y="30" width="36" height="45" fill="#ccc"></rect>
<rect x="113" y="30" width="36" height="16.981132075472" stroke-width="1.2" stroke="#000000" fill="#ffffff" ry="1.5" rx="1.5"></rect>
<text x="131" y="42.5" style="font-weight:bold;" text-anchor="middle" font-family="sans-serif" font-size="9.72" fill="#000000"></text>
<rect x="126.33333333333" y="58.481012658228" width="9" height="13.235294117647" fill="#000000"></rect>
<rect x="123.28571428571" y="58.481012658228" width="15.31914893617" height="11.25" fill="#000000"></rect>
<rect x="117.5" y="52.5" width="26.666666666667" height="15" fill="#000000"></rect>
<rect x="122" y="52.5" width="1.125" height="3" fill="#ffff00"></rect><rect x="124.4" y="52.5" width="1.125" height="3" fill="#ffff00"></rect><rect x="126.8" y="52.5" width="1.125" height="3" fill="#ffff00"></rect><rect x="129.2" y="52.5" width="1.125" height="3" fill="#ffff00"></rect><rect x="131.6" y="52.5" width="1.125" height="3" fill="#ffff00"></rect><rect x="134" y="52.5" width="1.125" height="3" fill="#ffff00"></rect><rect x="136.4" y="52.5" width="1.125" height="3" fill="#ffff00"></rect><rect x="138.8" y="52.5" width="1.125" height="3" fill="#ffff00"></rect><rect x="154" y="30" width="36" height="45" fill="#ccc"></rect>
<rect x="154" y="30" width="36" height="16.981132075472" stroke-width="1.2" stroke="#000000" fill="#ffffff" ry="1.5" rx="1.5"></rect>
<text x="172" y="42.5" style="font-weight:bold;" text-anchor="middle" font-family="sans-serif" font-size="9.72" fill="#000000"></text>
<rect x="167.33333333333" y="58.481012658228" width="9" height="13.235294117647" fill="#000000"></rect>
<rect x="164.28571428571" y="58.481012658228" width="15.31914893617" height="11.25" fill="#000000"></rect>
<rect x="158.5" y="52.5" width="26.666666666667" height="15" fill="#000000"></rect>
<rect x="163" y="52.5" width="1.125" height="3" fill="#ffff00"></rect><rect x="165.4" y="52.5" width="1.125" height="3" fill="#ffff00"></rect><rect x="167.8" y="52.5" width="1.125" height="3" fill="#ffff00"></rect><rect x="170.2" y="52.5" width="1.125" height="3" fill="#ffff00"></rect><rect x="172.6" y="52.5" width="1.125" height="3" fill="#ffff00"></rect><rect x="175" y="52.5" width="1.125" height="3" fill="#ffff00"></rect><rect x="177.4" y="52.5" width="1.125" height="3" fill="#ffff00"></rect><rect x="179.8" y="52.5" width="1.125" height="3" fill="#ffff00"></rect><rect x="195" y="30" width="36" height="45" fill="#ccc"></rect>
<rect x="195" y="30" width="36" height="16.981132075472" stroke-width="1.2" stroke="#000000" fill="#ffffff" ry="1.5" rx="1.5"></rect>
<text x="213" y="42.5" style="font-weight:bold;" text-anchor="middle" font-family="sans-serif" font-size="9.72" fill="#000000"></text>
<rect x="208.33333333333" y="58.481012658228" width="9" height="13.235294117647" fill="#000000"></rect>
<rect x="205.28571428571" y="58.481012658228" width="15.31914893617" height="11.25" fill="#000000"></rect>
<rect x="199.5" y="52.5" width="26.666666666667" height="15" fill="#000000"></rect>
<rect x="204" y="52.5" width="1.125" height="3" fill="#ffff00"></rect><rect x="206.4" y="52.5" width="1.125" height="3" fill="#ffff00"></rect><rect x="208.8" y="52.5" width="1.125" height="3" fill="#ffff00"></rect><rect x="211.2" y="52.5" width="1.125" height="3" fill="#ffff00"></rect><rect x="213.6" y="52.5" width="1.125" height="3" fill="#ffff00"></rect><rect x="216" y="52.5" width="1.125" height="3" fill="#ffff00"></rect><rect x="218.4" y="52.5" width="1.125" height="3" fill="#ffff00"></rect><rect x="220.8" y="52.5" width="1.125" height="3" fill="#ffff00"></rect><rect x="236" y="30" width="36" height="45" fill="#ccc"></rect>
<rect x="236" y="30" width="36" height="16.981132075472" stroke-width="1.2" stroke="#000000" fill="#ffffff" ry="1.5" rx="1.5"></rect>
<text x="254" y="42.5" style="font-weight:bold;" text-anchor="middle" font-family="sans-serif" font-size="9.72" fill="#000000"></text>
<rect x="249.33333333333" y="58.481012658228" width="9" height="13.235294117647" fill="#000000"></rect>
<rect x="246.28571428571" y="58.481012658228" width="15.31914893617" height="11.25" fill="#000000"></rect>
<rect x="240.5" y="52.5" width="26.666666666667" height="15" fill="#000000"></rect>
<rect x="245" y="52.5" width="1.125" height="3" fill="#ffff00"></rect><rect x="247.4" y="52.5" width="1.125" height="3" fill="#ffff00"></rect><rect x="249.8" y="52.5" width="1.125" height="3" fill="#ffff00"></rect><rect x="252.2" y="52.5" width="1.125" height="3" fill="#ffff00"></rect><rect x="254.6" y="52.5" width="1.125" height="3" fill="#ffff00"></rect><rect x="257" y="52.5" width="1.125" height="3" fill="#ffff00"></rect><rect x="259.4" y="52.5" width="1.125" height="3" fill="#ffff00"></rect><rect x="261.8" y="52.5" width="1.125" height="3" fill="#ffff00"></rect><rect x="277" y="30" width="36" height="45" fill="#ccc"></rect>
<rect x="277" y="30" width="36" height="16.981132075472" stroke-width="1.2" stroke="#000000" fill="#ffffff" ry="1.5" rx="1.5"></rect>
<text x="295" y="42.5" style="font-weight:bold;" text-anchor="middle" font-family="sans-serif" font-size="9.72" fill="#000000"></text>
<rect x="290.33333333333" y="58.481012658228" width="9" height="13.235294117647" fill="#000000"></rect>
<rect x="287.28571428571" y="58.481012658228" width="15.31914893617" height="11.25" fill="#000000"></rect>
<rect x="281.5" y="52.5" width="26.666666666667" height="15" fill="#000000"></rect>
<rect x="286" y="52.5" width="1.125" height="3" fill="#ffff00"></rect><rect x="288.4" y="52.5" width="1.125" height="3" fill="#ffff00"></rect><rect x="290.8" y="52.5" width="1.125" height="3" fill="#ffff00"></rect><rect x="293.2" y="52.5" width="1.125" height="3" fill="#ffff00"></rect><rect x="295.6" y="52.5" width="1.125" height="3" fill="#ffff00"></rect><rect x="298" y="52.5" width="1.125" height="3" fill="#ffff00"></rect><rect x="300.4" y="52.5" width="1.125" height="3" fill="#ffff00"></rect><rect x="302.8" y="52.5" width="1.125" height="3" fill="#ffff00"></rect><rect x="318" y="30" width="36" height="45" fill="#ccc"></rect>
<rect x="318" y="30" width="36" height="16.981132075472" stroke-width="1.2" stroke="#000000" fill="#ffffff" ry="1.5" rx="1.5"></rect>
<text x="336" y="42.5" style="font-weight:bold;" text-anchor="middle" font-family="sans-serif" font-size="9.72" fill="#000000"></text>
<rect x="331.33333333333" y="58.481012658228" width="9" height="13.235294117647" fill="#000000"></rect>
<rect x="328.28571428571" y="58.481012658228" width="15.31914893617" height="11.25" fill="#000000"></rect>
<rect x="322.5" y="52.5" width="26.666666666667" height="15" fill="#000000"></rect>
<rect x="327" y="52.5" width="1.125" height="3" fill="#ffff00"></rect><rect x="329.4" y="52.5" width="1.125" height="3" fill="#ffff00"></rect><rect x="331.8" y="52.5" width="1.125" height="3" fill="#ffff00"></rect><rect x="334.2" y="52.5" width="1.125" height="3" fill="#ffff00"></rect><rect x="336.6" y="52.5" width="1.125" height="3" fill="#ffff00"></rect><rect x="339" y="52.5" width="1.125" height="3" fill="#ffff00"></rect><rect x="341.4" y="52.5" width="1.125" height="3" fill="#ffff00"></rect><rect x="343.8" y="52.5" width="1.125" height="3" fill="#ffff00"></rect><rect x="359" y="30" width="36" height="45" fill="#ccc"></rect>
<rect x="359" y="30" width="36" height="16.981132075472" stroke-width="1.2" stroke="#000000" fill="#ffffff" ry="1.5" rx="1.5"></rect>
<text x="377" y="42.5" style="font-weight:bold;" text-anchor="middle" font-family="sans-serif" font-size="9.72" fill="#000000"></text>
<rect x="372.33333333333" y="58.481012658228" width="9" height="13.235294117647" fill="#000000"></rect>
<rect x="369.28571428571" y="58.481012658228" width="15.31914893617" height="11.25" fill="#000000"></rect>
<rect x="363.5" y="52.5" width="26.666666666667" height="15" fill="#000000"></rect>
<rect x="368" y="52.5" width="1.125" height="3" fill="#ffff00"></rect><rect x="370.4" y="52.5" width="1.125" height="3" fill="#ffff00"></rect><rect x="372.8" y="52.5" width="1.125" height="3" fill="#ffff00"></rect><rect x="375.2" y="52.5" width="1.125" height="3" fill="#ffff00"></rect><rect x="377.6" y="52.5" width="1.125" height="3" fill="#ffff00"></rect><rect x="380" y="52.5" width="1.125" height="3" fill="#ffff00"></rect><rect x="382.4" y="52.5" width="1.125" height="3" fill="#ffff00"></rect><rect x="384.8" y="52.5" width="1.125" height="3" fill="#ffff00"></rect><rect style="stroke:#1D611F;" fill="#80cc28" x="72" y="80" width="323" height="20" rx="2" ry="2"></rect><text style="fill:#fff;" font-size="20" fill="black" y="97.5" x="74.5">From Green It Solution </text><rect x="72" y="105" width="36" height="45" fill="#ccc"></rect>
<rect x="72" y="105" width="36" height="16.981132075472" stroke-width="1.2" stroke="#000000" fill="#ffffff" ry="1.5" rx="1.5"></rect>
<text x="90" y="117.5" style="font-weight:bold;" text-anchor="middle" font-family="sans-serif" font-size="9.72" fill="#000000"></text>
<rect x="85.333333333333" y="133.48101265823" width="9" height="13.235294117647" fill="#000000"></rect>
<rect x="82.285714285714" y="133.48101265823" width="15.31914893617" height="11.25" fill="#000000"></rect>
<rect x="76.5" y="127.5" width="26.666666666667" height="15" fill="#000000"></rect>
<rect x="81" y="127.5" width="1.125" height="3" fill="#ffff00"></rect><rect x="83.4" y="127.5" width="1.125" height="3" fill="#ffff00"></rect><rect x="85.8" y="127.5" width="1.125" height="3" fill="#ffff00"></rect><rect x="88.2" y="127.5" width="1.125" height="3" fill="#ffff00"></rect><rect x="90.6" y="127.5" width="1.125" height="3" fill="#ffff00"></rect><rect x="93" y="127.5" width="1.125" height="3" fill="#ffff00"></rect><rect x="95.4" y="127.5" width="1.125" height="3" fill="#ffff00"></rect><rect x="97.8" y="127.5" width="1.125" height="3" fill="#ffff00"></rect><rect x="113" y="105" width="36" height="45" fill="#ccc"></rect>
<rect x="113" y="105" width="36" height="16.981132075472" stroke-width="1.2" stroke="#000000" fill="#ffffff" ry="1.5" rx="1.5"></rect>
<text x="131" y="117.5" style="font-weight:bold;" text-anchor="middle" font-family="sans-serif" font-size="9.72" fill="#000000"></text>
<rect x="126.33333333333" y="133.48101265823" width="9" height="13.235294117647" fill="#000000"></rect>
<rect x="123.28571428571" y="133.48101265823" width="15.31914893617" height="11.25" fill="#000000"></rect>
<rect x="117.5" y="127.5" width="26.666666666667" height="15" fill="#000000"></rect>
<rect x="122" y="127.5" width="1.125" height="3" fill="#ffff00"></rect><rect x="124.4" y="127.5" width="1.125" height="3" fill="#ffff00"></rect><rect x="126.8" y="127.5" width="1.125" height="3" fill="#ffff00"></rect><rect x="129.2" y="127.5" width="1.125" height="3" fill="#ffff00"></rect><rect x="131.6" y="127.5" width="1.125" height="3" fill="#ffff00"></rect><rect x="134" y="127.5" width="1.125" height="3" fill="#ffff00"></rect><rect x="136.4" y="127.5" width="1.125" height="3" fill="#ffff00"></rect><rect x="138.8" y="127.5" width="1.125" height="3" fill="#ffff00"></rect><rect x="154" y="105" width="36" height="45" fill="#ccc"></rect>
<rect x="154" y="105" width="36" height="16.981132075472" stroke-width="1.2" stroke="#000000" fill="#ffffff" ry="1.5" rx="1.5"></rect>
<text x="172" y="117.5" style="font-weight:bold;" text-anchor="middle" font-family="sans-serif" font-size="9.72" fill="#000000"></text>
<rect x="167.33333333333" y="133.48101265823" width="9" height="13.235294117647" fill="#000000"></rect>
<rect x="164.28571428571" y="133.48101265823" width="15.31914893617" height="11.25" fill="#000000"></rect>
<rect x="158.5" y="127.5" width="26.666666666667" height="15" fill="#000000"></rect>
<rect x="163" y="127.5" width="1.125" height="3" fill="#ffff00"></rect><rect x="165.4" y="127.5" width="1.125" height="3" fill="#ffff00"></rect><rect x="167.8" y="127.5" width="1.125" height="3" fill="#ffff00"></rect><rect x="170.2" y="127.5" width="1.125" height="3" fill="#ffff00"></rect><rect x="172.6" y="127.5" width="1.125" height="3" fill="#ffff00"></rect><rect x="175" y="127.5" width="1.125" height="3" fill="#ffff00"></rect><rect x="177.4" y="127.5" width="1.125" height="3" fill="#ffff00"></rect><rect x="179.8" y="127.5" width="1.125" height="3" fill="#ffff00"></rect><rect x="195" y="105" width="36" height="45" fill="#ccc"></rect>
<rect x="195" y="105" width="36" height="16.981132075472" stroke-width="1.2" stroke="#000000" fill="#ffffff" ry="1.5" rx="1.5"></rect>
<text x="213" y="117.5" style="font-weight:bold;" text-anchor="middle" font-family="sans-serif" font-size="9.72" fill="#000000"></text>
<rect x="208.33333333333" y="133.48101265823" width="9" height="13.235294117647" fill="#000000"></rect>
<rect x="205.28571428571" y="133.48101265823" width="15.31914893617" height="11.25" fill="#000000"></rect>
<rect x="199.5" y="127.5" width="26.666666666667" height="15" fill="#000000"></rect>
<rect x="204" y="127.5" width="1.125" height="3" fill="#ffff00"></rect><rect x="206.4" y="127.5" width="1.125" height="3" fill="#ffff00"></rect><rect x="208.8" y="127.5" width="1.125" height="3" fill="#ffff00"></rect><rect x="211.2" y="127.5" width="1.125" height="3" fill="#ffff00"></rect><rect x="213.6" y="127.5" width="1.125" height="3" fill="#ffff00"></rect><rect x="216" y="127.5" width="1.125" height="3" fill="#ffff00"></rect><rect x="218.4" y="127.5" width="1.125" height="3" fill="#ffff00"></rect><rect x="220.8" y="127.5" width="1.125" height="3" fill="#ffff00"></rect><rect x="236" y="105" width="36" height="45" fill="#ccc"></rect>
<rect x="236" y="105" width="36" height="16.981132075472" stroke-width="1.2" stroke="#000000" fill="#ffffff" ry="1.5" rx="1.5"></rect>
<text x="254" y="117.5" style="font-weight:bold;" text-anchor="middle" font-family="sans-serif" font-size="9.72" fill="#000000"></text>
<rect x="249.33333333333" y="133.48101265823" width="9" height="13.235294117647" fill="#000000"></rect>
<rect x="246.28571428571" y="133.48101265823" width="15.31914893617" height="11.25" fill="#000000"></rect>
<rect x="240.5" y="127.5" width="26.666666666667" height="15" fill="#000000"></rect>
<rect x="245" y="127.5" width="1.125" height="3" fill="#ffff00"></rect><rect x="247.4" y="127.5" width="1.125" height="3" fill="#ffff00"></rect><rect x="249.8" y="127.5" width="1.125" height="3" fill="#ffff00"></rect><rect x="252.2" y="127.5" width="1.125" height="3" fill="#ffff00"></rect><rect x="254.6" y="127.5" width="1.125" height="3" fill="#ffff00"></rect><rect x="257" y="127.5" width="1.125" height="3" fill="#ffff00"></rect><rect x="259.4" y="127.5" width="1.125" height="3" fill="#ffff00"></rect><rect x="261.8" y="127.5" width="1.125" height="3" fill="#ffff00"></rect><rect x="277" y="105" width="36" height="45" fill="#ccc"></rect>
<rect x="277" y="105" width="36" height="16.981132075472" stroke-width="1.2" stroke="#000000" fill="#ffffff" ry="1.5" rx="1.5"></rect>
<text x="295" y="117.5" style="font-weight:bold;" text-anchor="middle" font-family="sans-serif" font-size="9.72" fill="#000000"></text>
<rect x="290.33333333333" y="133.48101265823" width="9" height="13.235294117647" fill="#000000"></rect>
<rect x="287.28571428571" y="133.48101265823" width="15.31914893617" height="11.25" fill="#000000"></rect>
<rect x="281.5" y="127.5" width="26.666666666667" height="15" fill="#000000"></rect>
<rect x="286" y="127.5" width="1.125" height="3" fill="#ffff00"></rect><rect x="288.4" y="127.5" width="1.125" height="3" fill="#ffff00"></rect><rect x="290.8" y="127.5" width="1.125" height="3" fill="#ffff00"></rect><rect x="293.2" y="127.5" width="1.125" height="3" fill="#ffff00"></rect><rect x="295.6" y="127.5" width="1.125" height="3" fill="#ffff00"></rect><rect x="298" y="127.5" width="1.125" height="3" fill="#ffff00"></rect><rect x="300.4" y="127.5" width="1.125" height="3" fill="#ffff00"></rect><rect x="302.8" y="127.5" width="1.125" height="3" fill="#ffff00"></rect><rect x="318" y="105" width="36" height="45" fill="#ccc"></rect>
<rect x="318" y="105" width="36" height="16.981132075472" stroke-width="1.2" stroke="#000000" fill="#ffffff" ry="1.5" rx="1.5"></rect>
<text x="336" y="117.5" style="font-weight:bold;" text-anchor="middle" font-family="sans-serif" font-size="9.72" fill="#000000"></text>
<rect x="331.33333333333" y="133.48101265823" width="9" height="13.235294117647" fill="#000000"></rect>
<rect x="328.28571428571" y="133.48101265823" width="15.31914893617" height="11.25" fill="#000000"></rect>
<rect x="322.5" y="127.5" width="26.666666666667" height="15" fill="#000000"></rect>
<rect x="327" y="127.5" width="1.125" height="3" fill="#ffff00"></rect><rect x="329.4" y="127.5" width="1.125" height="3" fill="#ffff00"></rect><rect x="331.8" y="127.5" width="1.125" height="3" fill="#ffff00"></rect><rect x="334.2" y="127.5" width="1.125" height="3" fill="#ffff00"></rect><rect x="336.6" y="127.5" width="1.125" height="3" fill="#ffff00"></rect><rect x="339" y="127.5" width="1.125" height="3" fill="#ffff00"></rect><rect x="341.4" y="127.5" width="1.125" height="3" fill="#ffff00"></rect><rect x="343.8" y="127.5" width="1.125" height="3" fill="#ffff00"></rect><rect x="359" y="105" width="36" height="45" fill="#ccc"></rect>
<rect x="359" y="105" width="36" height="16.981132075472" stroke-width="1.2" stroke="#000000" fill="#ffffff" ry="1.5" rx="1.5"></rect>
<text x="377" y="117.5" style="font-weight:bold;" text-anchor="middle" font-family="sans-serif" font-size="9.72" fill="#000000"></text>
<rect x="372.33333333333" y="133.48101265823" width="9" height="13.235294117647" fill="#000000"></rect>
<rect x="369.28571428571" y="133.48101265823" width="15.31914893617" height="11.25" fill="#000000"></rect>
<rect x="363.5" y="127.5" width="26.666666666667" height="15" fill="#000000"></rect>
<rect x="368" y="127.5" width="1.125" height="3" fill="#ffff00"></rect><rect x="370.4" y="127.5" width="1.125" height="3" fill="#ffff00"></rect><rect x="372.8" y="127.5" width="1.125" height="3" fill="#ffff00"></rect><rect x="375.2" y="127.5" width="1.125" height="3" fill="#ffff00"></rect><rect x="377.6" y="127.5" width="1.125" height="3" fill="#ffff00"></rect><rect x="380" y="127.5" width="1.125" height="3" fill="#ffff00"></rect><rect x="382.4" y="127.5" width="1.125" height="3" fill="#ffff00"></rect><rect x="384.8" y="127.5" width="1.125" height="3" fill="#ffff00"></rect></svg>